<svg width="57" height="58" viewBox="0 0 57 58" fill="none" xmlns="http://www.w3.org/2000/svg">
<path fill-rule="evenodd" clip-rule="evenodd" d="M15.3462 4.46154C9.29226 4.46154 4.38462 9.45529 4.38462 15.6154V42.3846C4.38462 48.5447 9.29226 53.5385 15.3462 53.5385H41.6538C47.7077 53.5385 52.6154 48.5447 52.6154 42.3846V15.6154C52.6154 9.45529 47.7077 4.46154 41.6538 4.46154H15.3462ZM0 15.6154C0 6.99125 6.87071 0 15.3462 0H41.6538C50.1293 0 57 6.99125 57 15.6154V42.3846C57 51.0088 50.1293 58 41.6538 58H15.3462C6.87071 58 0 51.0088 0 42.3846V15.6154Z" fill="white"/>
<path fill-rule="evenodd" clip-rule="evenodd" d="M30.2493 20.5749C28.4772 20.3121 26.6674 20.6148 25.0772 21.4399C23.4871 22.265 22.1975 23.5705 21.3921 25.1707C20.5867 26.771 20.3063 28.5844 20.5909 30.3531C20.8756 32.1219 21.7106 33.7558 22.9774 35.0226C24.2442 36.2894 25.8781 37.1244 27.6469 37.4091C29.4156 37.6937 31.229 37.4133 32.8293 36.6079C34.4295 35.8025 35.735 34.5129 36.5601 32.9228C37.3852 31.3326 37.6879 29.5228 37.4251 27.7507C37.1571 25.943 36.3148 24.2696 35.0226 22.9774C33.7304 21.6853 32.057 20.8429 30.2493 20.5749ZM23.0126 17.4609C25.4397 16.2015 28.2021 15.7395 30.9069 16.1406C33.6659 16.5498 36.2201 17.8354 38.1924 19.8076C40.1646 21.7799 41.4502 24.3341 41.8594 27.0931C42.2605 29.7979 41.7985 32.5603 40.5391 34.9874C39.2797 37.4145 37.2871 39.3827 34.8447 40.612C32.4022 41.8414 29.6343 42.2693 26.9347 41.8349C24.235 41.4005 21.7411 40.1259 19.8076 38.1924C17.8741 36.2589 16.5995 33.765 16.1651 31.0653C15.7307 28.3657 16.1586 25.5978 17.388 23.1553C18.6173 20.7129 20.5855 18.7203 23.0126 17.4609Z" fill="white"/>
<path fill-rule="evenodd" clip-rule="evenodd" d="M41 14.5C41 13.1193 42.113 12 43.4859 12H43.5141C44.887 12 46 13.1193 46 14.5C46 15.8807 44.887 17 43.5141 17H43.4859C42.113 17 41 15.8807 41 14.5Z" fill="white"/>
</svg>
